<?xml version="1.0" standalone="no"?>
<!DOCTYPE svg PUBLIC "-//W3C//DTD SVG 20010904//EN"
 "http://www.w3.org/TR/2001/REC-SVG-20010904/DTD/svg10.dtd">
<svg version="1.0" xmlns="http://www.w3.org/2000/svg"
 width="161.000000pt" height="161.000000pt" viewBox="0 0 161.000000 161.000000"
 preserveAspectRatio="xMidYMid meet">
<metadata>
Created by potrace 1.14, written by Peter Selinger 2001-2017
</metadata>
<g transform="translate(0.000000,161.000000) scale(0.100000,-0.100000)"
fill="#000000" stroke="none">
<path d="M675 1371 c-29 -19 -168 -157 -176 -175 -2 -5 25 -11 61 -13 36 -2
82 -5 103 -7 32 -3 37 -1 38 18 3 62 10 131 14 135 3 2 6 -22 7 -55 0 -32 2
-63 3 -69 2 -5 3 -16 4 -22 1 -9 21 -13 63 -13 34 0 59 -2 56 -5 -5 -5 -59
-13 -97 -14 l-23 -1 7 -122 c3 -68 9 -126 13 -130 4 -4 61 -10 127 -14 66 -3
125 -7 130 -8 6 0 13 31 16 69 6 76 8 76 15 0 7 -77 6 -75 85 -75 90 0 87 -6
-6 -13 -38 -3 -71 -6 -72 -6 -1 -1 0 -25 3 -53 3 -29 7 -131 8 -227 l2 -174
65 -33 c35 -18 66 -33 69 -34 3 0 5 25 6 55 0 45 -3 56 -19 61 -10 3 -34 19
-52 36 -37 32 -51 77 -40 127 7 34 61 91 86 91 21 0 29 20 23 56 -4 20 2 34
21 54 50 52 42 65 -227 335 -152 152 -252 245 -264 245 -10 0 -32 -9 -49 -19z"/>
<path d="M617 1144 c-1 -1 -42 -4 -90 -7 -48 -2 -90 -7 -94 -11 -4 -3 -8 -40
-10 -82 -2 -41 -5 -95 -7 -119 l-3 -44 116 5 c64 2 125 6 135 7 23 4 25 13 28
147 l3 105 -38 0 c-21 1 -39 0 -40 -1z"/>
<path d="M277 979 c-65 -67 -86 -94 -76 -99 17 -9 70 -7 86 3 6 4 14 3 17 -2
4 -5 19 -8 34 -6 15 2 31 4 35 4 9 1 7 191 -2 191 -2 0 -45 -41 -94 -91z"/>
<path d="M190 851 c0 -19 478 -501 507 -512 28 -10 43 -1 111 65 l62 60 0 -65
c0 -36 3 -69 7 -72 3 -4 37 10 75 30 l68 37 0 229 0 228 -112 -7 c-62 -4 -125
-7 -140 -7 -24 -1 -28 -5 -29 -31 0 -17 -2 -75 -5 -129 l-5 -98 68 2 c61 2 68
1 71 -17 3 -18 -3 -20 -70 -19 -58 0 -73 -3 -74 -15 -1 -8 -2 -42 -3 -74 -1
-79 -9 -68 -12 17 -1 37 -7 71 -13 75 -6 3 -36 8 -65 10 -79 4 -76 12 3 12
l68 0 -7 128 c-4 70 -9 129 -11 131 -6 7 -16 8 -152 16 l-122 7 -1 -36 c-3
-82 -4 -95 -9 -100 -3 -2 -7 25 -8 62 -2 36 -5 68 -7 72 -2 3 -33 7 -68 8 -36
2 -79 5 -96 7 -24 3 -31 0 -31 -14z"/>
<path d="M1303 814 c-69 -33 -73 -37 -73 -69 0 -27 5 -35 31 -45 48 -20 83
-74 83 -126 -1 -24 -7 -51 -14 -59 -12 -14 -8 -22 28 -58 l42 -42 -2 214 c-2
132 -7 215 -13 217 -5 2 -43 -13 -82 -32z"/>
<path d="M1179 666 c-41 -13 -73 -70 -63 -110 16 -64 90 -97 144 -65 103 63
34 212 -81 175z"/>
<path d="M1263 457 c-32 -10 -33 -11 -33 -68 l0 -59 53 21 c28 12 60 24 70 26
24 7 22 14 -20 54 -35 33 -41 35 -70 26z"/>
<path d="M1393 395 c-9 -10 -7 -17 11 -34 12 -11 28 -21 34 -21 19 0 14 25
-10 47 -19 17 -25 19 -35 8z"/>
</g>
</svg>
